<svg id="Calque_1" data-name="Calque 1" xmlns="http://www.w3.org/2000/svg" viewBox="0 0 130.5 75.67"><defs><style>.cls-1{fill:none;}.cls-2{fill:#60605f;}.cls-3{fill:#333;}.cls-4{fill:#999;}</style></defs><title>chat</title><rect class="cls-1" x="68.25" y="8.77" width="1.91" height="0.02"/><polygon class="cls-2" points="118.98 37.71 118.98 35.72 118.98 34.72 118.98 33.72 118.15 33.72 118.15 34.72 116.15 34.72 116.15 35.72 114.16 35.72 114.16 36.72 113.16 36.72 113.16 38.71 113.16 40.71 113.16 42.7 112.16 42.7 112.16 43.7 114.16 43.7 114.16 42.7 116.15 42.7 118.15 42.7 118.15 41.7 118.98 41.7 118.98 39.71 118.98 37.71"/><polygon class="cls-2" points="124.14 31.73 122.14 31.73 122.14 32.72 121.06 32.72 121.06 33.72 121.06 34.72 122.1 34.72 123.14 34.72 123.14 36.72 123.14 38.71 125.14 38.71 125.14 37.71 127.13 37.71 127.13 36.72 127.13 34.72 127.13 32.72 126.13 32.72 126.13 30.73 124.14 30.73 124.14 31.73"/><polygon class="cls-3" points="121.06 39.38 121.06 39.71 121.06 40.71 122.14 40.71 123.14 40.71 123.14 38.71 121.06 38.71 121.06 39.38"/><polygon class="cls-4" points="92.2 11.77 90.21 11.77 90.21 10.77 88.21 10.77 88.21 9.77 86.21 9.77 86.21 8.77 84.22 8.77 84.22 10.77 84.22 12.76 85.22 12.76 85.22 14.76 86.21 14.76 86.21 16.75 88.21 16.75 90.21 16.75 92.2 16.75 92.2 14.76 93.2 14.76 93.2 12.76 92.2 12.76 92.2 11.77"/><polygon class="cls-4" points="76.23 8.77 74.27 8.77 74.24 8.77 72.24 8.77 72.22 8.77 70.25 8.77 70.16 8.77 70.16 8.79 68.25 8.79 68.25 9.75 68.25 9.77 68.25 10.71 68.25 10.77 68.25 12.76 69.21 12.76 69.21 14.76 69.25 14.76 70.23 14.76 70.25 14.76 70.25 16.75 72.24 16.75 74.24 16.75 76.23 16.75 76.23 14.76 77.23 14.76 77.23 12.76 78.23 12.76 78.23 10.77 78.23 8.77 76.32 8.77 76.23 8.77"/><rect x="97.19" y="68.65" width="2" height="2"/><rect x="99.19" y="66.65" width="2" height="2"/><polygon points="128.13 32.72 128.13 30.73 126.13 30.73 126.13 32.72 127.13 32.72 127.13 34.72 127.13 36.72 127.13 37.71 125.14 37.71 125.14 38.71 123.14 38.71 123.14 40.71 122.14 40.71 121.06 40.71 121.06 41.7 120.15 41.7 118.98 41.7 118.15 41.7 118.15 42.7 116.15 42.7 114.16 42.7 114.16 43.7 112.16 43.7 112.16 44.7 110.17 44.7 110.17 45.03 108.17 45.03 108.17 46.7 108.17 48.69 108.17 50.69 108.17 52.68 107.17 52.68 107.17 54.68 106.17 54.68 106.17 56.67 105.18 56.67 105.18 58.67 104.18 58.67 104.18 60.67 103.18 60.67 103.18 62.66 102.18 62.66 102.18 64.66 101.18 64.66 101.18 66.65 103.18 66.65 103.18 64.66 104.18 64.66 104.18 62.66 105.18 62.66 105.18 60.67 106.17 60.67 106.17 58.67 107.17 58.67 107.17 56.67 108.17 56.67 108.17 54.68 109.17 54.68 109.17 52.68 110.17 52.68 110.17 50.69 110.17 48.69 110.17 46.7 112.16 46.7 112.16 45.7 114.16 45.7 114.16 44.7 116.15 44.7 118.15 44.7 118.15 43.7 120.15 43.7 120.15 42.7 122.14 42.7 124.14 42.7 124.14 40.71 125.14 40.71 125.14 39.71 127.13 39.71 127.13 38.71 129.13 38.71 129.13 36.72 129.13 34.72 129.13 32.72 128.13 32.72"/><polygon points="100.19 16.75 100.19 17.75 101.18 17.75 101.18 19.75 102.18 19.75 102.18 21.75 103.18 21.75 103.18 23.74 104.18 23.74 104.18 25.74 105.18 25.74 105.18 27.73 106.17 27.73 106.17 29.73 107.17 29.73 107.17 31.73 108.17 31.73 108.17 33.72 108.17 35.05 110.17 35.05 110.17 35.72 110.17 36.72 110.58 36.72 111.16 36.72 111.58 36.72 112.16 36.72 113.16 36.72 114.16 36.72 114.16 35.72 116.15 35.72 116.15 34.72 118.15 34.72 118.15 33.72 118.98 33.72 118.98 33.05 118.98 32.72 120.02 32.72 120.15 32.72 121.06 32.72 122.14 32.72 122.14 31.73 124.14 31.73 124.14 30.73 126.13 30.73 126.13 28.73 124.14 28.73 124.14 29.73 122.14 29.73 122.14 30.73 120.15 30.73 120.15 31.73 118.15 31.73 118.15 32.72 116.15 32.72 116.15 33.72 114.16 33.72 114.16 34.72 112.16 34.72 110.17 34.72 110.17 33.72 110.17 31.73 109.17 31.73 109.17 29.73 108.17 29.73 108.17 27.73 107.17 27.73 107.17 25.74 106.17 25.74 106.17 23.74 105.18 23.74 105.18 21.75 104.18 21.75 104.18 19.75 103.18 19.75 103.18 17.75 102.18 17.75 102.18 15.76 100.19 15.76 100.19 14.76 98.19 14.76 98.19 16.75 100.19 16.75"/><polygon class="cls-4" points="113.16 42.7 113.16 40.71 113.16 38.71 113.16 36.72 112.16 36.72 111.58 36.72 111.16 36.72 110.58 36.72 110.17 36.72 110.17 35.72 110.17 35.05 108.17 35.05 108.17 35.72 108.17 37.05 109.17 37.05 109.17 39.04 109.17 41.04 109.17 43.03 108.17 43.03 108.17 44.7 108.17 45.03 110.17 45.03 110.17 44.7 112.16 44.7 112.16 43.7 112.16 42.7 113.16 42.7"/><polygon class="cls-4" points="123.14 34.72 122.1 34.72 121.06 34.72 121.06 33.72 121.06 32.72 120.15 32.72 120.02 32.72 118.98 32.72 118.98 33.05 118.98 33.72 118.98 34.72 118.98 35.72 118.98 37.71 118.98 39.71 118.98 41.7 120.15 41.7 121.06 41.7 121.06 40.71 121.06 39.71 121.06 39.38 121.06 38.71 123.14 38.71 123.14 36.72 123.14 34.72"/><polygon points="32.82 22.74 32.82 20.97 30.83 20.97 30.83 22.74 30.83 22.96 30.83 24.74 32.82 24.74 32.82 22.96 32.82 22.74"/><polygon points="28.83 23.74 26.83 23.74 26.83 25.74 28.83 25.74 28.83 26.73 30.83 26.73 30.83 24.74 28.83 24.74 28.83 23.74"/><polygon points="34.82 24.74 32.82 24.74 32.82 26.73 34.82 26.73 34.82 25.74 36.81 25.74 36.81 23.74 34.82 23.74 34.82 24.74"/><polygon points="56.77 20.75 54.78 20.75 54.78 21.75 52.78 21.75 50.78 21.75 48.79 21.75 48.79 23.74 50.78 23.74 52.78 23.74 54.78 23.74 54.78 22.74 56.77 22.74 56.77 21.75 58.77 21.75 58.77 19.75 56.77 19.75 56.77 20.75"/><rect x="1.88" y="19.75" width="2" height="2"/><polygon points="58.77 14.76 56.77 14.76 56.77 15.76 54.78 15.76 53.78 15.76 52.78 15.76 51.78 15.76 51.78 17.75 52.78 17.75 53.78 17.75 54.78 17.75 56.77 17.75 56.77 16.75 58.77 16.75 58.77 15.76 60.77 15.76 60.77 13.76 58.77 13.76 58.77 14.76"/><polygon class="cls-4" points="30.83 7.77 30.83 9.77 31.82 9.77 31.82 11.77 33.82 11.77 33.82 9.77 34.82 9.77 34.82 7.77 32.82 7.77 30.83 7.77"/><polygon class="cls-4" points="39.31 7.77 38.81 7.77 37.31 7.77 37.31 9.77 38.31 9.77 38.31 11.77 40.31 11.77 40.31 9.77 41.3 9.77 41.3 7.77 40.81 7.77 39.31 7.77"/><path class="cls-2" d="M102.18,64.66v-2h1v-2h1v-2h1v-2h1v-2h1v-2h1V43h1V37h-1V31.72h-1v-2h-1v-2h-1v-2h-1v-2h-1v-2h-1v-2h-1v-2h-1v-1h-2v-2h-2v-1h-2v-1h-1v2h-1v2h-6v-2h-1v-2h-1v-4h-6v4h-1v2h-1v2h-6v-2h-1v-2h-1v-3h-2v1h-2v1h-2v-1H56.77v1h-4v-2h-1v-2h-1v-2h-1v-2h-1v-1h-2v1h-1v2h-1v2H41.3v2h-1v2h-2v-2h-1v-2h-2.5v2h-1v2h-2v-2h-1v-2h-2v2h-1v2h-2v-2h-1v-2h-1v-2h-1v-2h-1v-1h-2v2h-2v2h-1v2h-1v2h-1v2h-1v2h-1v2h-1v10h2v2h1v2h-2v-2H9.12v8H8.37v2H8V52H8.7v2h.67v2H10v2h.67v2h.67v2H12v1.33h2v2h1.33v1.33h2V68h2v1.33h2v1.33h2v2h2v-2h18v2h2v-2H75.24v2h2v-2h16v2h2v-2h2v-2h2v-2h2v-2ZM19.35,24.74a2.27,2.27,0,1,1,2.27-2.27A2.27,2.27,0,0,1,19.35,24.74Zm17.46,1h-2v1h-2v-2h-2v2h-2v-1h-2v-2h2v1h2V21h2v3.77h2v-1h2Zm6-1a2.27,2.27,0,1,1,2.27-2.27A2.27,2.27,0,0,1,42.8,24.74Zm16-3h-2v1h-2v1h-6v-2h6v-1h2v-1h2Zm2-6h-2v1h-2v1h-5v-2h5v-1h2v-1h2Z"/><polygon points="95.2 72.64 94.2 72.64 93.2 72.64 93.2 70.65 91.2 70.65 89.21 70.65 87.21 70.65 85.22 70.65 83.22 70.65 81.22 70.65 79.23 70.65 77.23 70.65 77.23 72.64 76.23 72.64 75.24 72.64 75.24 70.65 73.24 70.65 71.24 70.65 69.25 70.65 67.25 70.65 65.26 70.65 63.26 70.65 61.27 70.65 59.27 70.65 57.27 70.65 55.28 70.65 53.28 70.65 51.28 70.65 49.29 70.65 47.29 70.65 45.3 70.65 45.3 72.64 44.3 72.64 43.3 72.64 43.3 70.65 41.3 70.65 39.31 70.65 37.31 70.65 35.32 70.65 33.32 70.65 31.32 70.65 29.33 70.65 27.33 70.65 25.34 70.65 25.34 72.64 24.34 72.64 23.34 72.64 23.34 70.65 21.34 70.65 21.34 69.32 19.35 69.32 19.35 67.98 17.35 67.98 17.35 66.65 15.36 66.65 15.36 65.32 14.03 65.32 14.03 63.33 12.03 63.33 12.03 62 11.37 62 11.37 60 10.7 60 10.7 58.01 10.03 58.01 10.03 56.01 9.37 56.01 9.37 54.01 8.7 54.01 8.7 52.02 8.04 52.02 8.04 50.02 8.04 48.02 8.04 46.03 8.04 44.03 8.04 42.04 8.04 40.04 8.04 38.71 8.37 38.71 8.37 36.72 9.12 36.72 9.12 34.05 9.12 32.06 9.12 30.73 9.12 30.06 9.12 28.73 9.87 28.73 10.12 28.73 11.86 28.73 12.86 28.73 12.86 30.73 14.86 30.73 14.86 29.73 14.86 28.73 13.86 28.73 13.86 26.73 11.86 26.73 11.86 24.74 11.86 22.74 11.86 20.75 11.86 18.75 11.86 16.75 12.86 16.75 12.86 14.76 13.86 14.76 13.86 12.76 14.86 12.76 14.86 10.77 15.86 10.77 15.86 8.77 16.85 8.77 16.85 6.78 17.85 6.78 17.85 4.78 15.86 4.78 15.86 6.78 14.86 6.78 14.86 8.77 13.86 8.77 13.86 10.77 12.86 10.77 12.86 12.76 11.86 12.76 11.86 14.76 11.37 14.76 11.37 16.75 10.87 16.75 10.37 16.75 9.87 16.75 9.37 16.75 8.37 16.75 7.87 16.75 5.88 16.75 5.88 15.76 3.88 15.76 3.88 14.76 1.88 14.76 1.88 16.75 3.88 16.75 3.88 17.75 5.88 17.75 5.88 18.75 7.37 18.75 7.87 18.75 8.37 18.75 9.37 18.75 9.87 18.75 9.87 20.75 9.87 21.75 7.87 21.75 7.87 20.75 7.37 20.75 6.38 20.75 5.88 20.75 4.38 20.75 4.38 22.74 5.38 22.74 5.88 22.74 6.38 22.74 7.37 22.74 7.87 22.74 7.87 23.74 9.87 23.74 9.87 24.74 9.87 26.73 9.12 26.73 8.12 26.73 8.12 28.73 7.12 28.73 7.12 30.06 7.12 30.73 7.12 32.06 7.12 34.05 7.12 36.72 6.04 36.72 6.04 38.05 6.04 38.71 6.04 40.04 6.04 42.04 6.04 44.03 6.04 46.03 6.04 46.7 6.04 48.02 6.04 50.02 6.04 52.02 6.71 52.02 6.71 54.01 7.37 54.01 7.37 56.01 8.04 56.01 8.04 58.01 8.7 58.01 8.7 60 9.37 60 9.37 62 10.03 62 10.03 63.99 12.03 63.99 12.03 65.32 13.36 65.32 13.36 67.32 15.36 67.32 15.36 68.65 17.35 68.65 17.35 69.98 19.35 69.98 19.35 71.31 21.34 71.31 21.34 72.64 22.34 72.64 22.34 74.64 24.34 74.64 26.34 74.64 26.34 72.64 27.33 72.64 29.33 72.64 31.32 72.64 33.32 72.64 35.32 72.64 37.31 72.64 39.31 72.64 41.3 72.64 42.3 72.64 42.3 74.64 44.3 74.64 46.3 74.64 46.3 72.64 47.29 72.64 49.29 72.64 51.28 72.64 53.28 72.64 55.28 72.64 57.27 72.64 59.27 72.64 61.27 72.64 63.26 72.64 65.26 72.64 67.25 72.64 69.25 72.64 71.24 72.64 73.24 72.64 74.24 72.64 74.24 74.64 76.23 74.64 78.23 74.64 78.23 72.64 79.23 72.64 81.22 72.64 83.22 72.64 85.22 72.64 87.21 72.64 89.21 72.64 91.2 72.64 92.2 72.64 92.2 74.64 94.2 74.64 96.19 74.64 96.19 72.64 97.19 72.64 97.19 70.65 95.2 70.65 95.2 72.64"/><rect x="17.85" y="2.78" width="2" height="2"/><polygon class="cls-4" points="25.84 7.77 24.84 7.77 24.84 9.77 25.84 9.77 25.84 11.77 27.83 11.77 27.83 9.77 28.83 9.77 28.83 7.77 26.83 7.77 25.84 7.77"/><polygon points="21.84 3.78 22.84 3.78 22.84 5.78 23.84 5.78 23.84 7.77 24.84 7.77 25.84 7.77 26.83 7.77 28.83 7.77 30.83 7.77 32.82 7.77 34.82 7.77 36.81 7.77 37.31 7.77 38.81 7.77 39.31 7.77 40.81 7.77 41.3 7.77 42.8 7.77 44.8 7.77 44.8 5.78 45.8 5.78 45.8 3.78 46.79 3.78 46.79 2.78 48.79 2.78 48.79 3.78 49.79 3.78 49.79 5.78 50.78 5.78 50.78 7.77 51.78 7.77 51.78 9.77 52.78 9.77 52.78 11.77 53.78 11.77 54.78 11.77 55.78 11.77 56.77 11.77 56.77 10.77 58.27 10.77 60.27 10.77 62.26 10.77 62.26 11.77 63.26 11.77 64.26 11.77 64.26 10.77 66.25 10.77 66.25 9.77 68.25 9.77 68.25 9.75 68.25 8.79 68.25 8.77 70.16 8.77 70.25 8.77 72.22 8.77 72.24 8.77 74.24 8.77 74.27 8.77 76.23 8.77 76.32 8.77 78.23 8.77 80.23 8.77 82.22 8.77 84.22 8.77 86.21 8.77 86.21 9.77 88.21 9.77 88.21 10.77 90.21 10.77 90.21 11.77 92.2 11.77 92.2 12.76 93.2 12.76 94.2 12.76 94.2 13.76 96.19 13.76 96.19 14.76 98.19 14.76 98.19 12.76 96.19 12.76 96.19 11.77 94.2 11.77 94.2 10.77 92.2 10.77 92.2 9.77 90.21 9.77 90.21 8.77 88.21 8.77 88.21 7.77 86.21 7.77 86.21 6.78 84.22 6.78 82.22 6.78 80.23 6.78 78.23 6.78 76.23 6.78 74.24 6.78 72.24 6.78 70.25 6.78 68.25 6.78 68.25 7.77 67.25 7.77 66.25 7.77 66.25 8.77 64.26 8.77 64.26 9.77 62.26 9.77 62.26 8.77 60.27 8.77 58.27 8.77 56.27 8.77 56.27 9.77 54.78 9.77 53.78 9.77 53.78 7.77 52.78 7.77 52.78 5.78 51.78 5.78 51.78 3.78 50.78 3.78 50.78 1.78 48.79 1.78 48.79 0.79 46.79 0.79 46.79 1.78 44.8 1.78 44.8 3.78 43.8 3.78 43.8 5.78 42.8 5.78 40.81 5.78 38.81 5.78 36.81 5.78 34.82 5.78 32.82 5.78 30.83 5.78 28.83 5.78 26.83 5.78 25.84 5.78 24.84 5.78 24.84 3.78 23.84 3.78 23.84 1.78 21.84 1.78 21.84 0.79 19.85 0.79 19.85 2.78 21.84 2.78 21.84 3.78"/><circle cx="19.35" cy="22.47" r="2.27"/><circle cx="42.8" cy="22.47" r="2.27"/></svg>