<svg id="Calque_1" data-name="Calque 1" xmlns="http://www.w3.org/2000/svg" viewBox="0 0 130.25 83"><defs><style>.cls-1{fill:none;}.cls-2{fill:#333;}.cls-3{fill:#999;}.cls-4{fill:#e6e6e6;}.cls-5{fill:#c13a64;}</style></defs><title>chat</title><polygon class="cls-1" points="19.45 7.57 19.45 9.56 19.47 9.56 19.47 7.57 21.45 7.57 21.45 7.57 19.45 7.57"/><rect class="cls-1" x="52.4" y="12.56" width="0.04" height="1.99"/><polygon class="cls-1" points="9.45 30.56 9.45 31.56 9.45 33.52 9.49 33.52 9.49 31.52 9.49 30.52 7.49 30.52 7.49 29.52 6.99 29.52 6.99 30.56 7.45 30.56 9.45 30.56"/><rect class="cls-1" x="21.46" y="8.57" width="1.98"/><rect class="cls-1" x="17.45" y="9.57" width="0.02" height="1.99"/><rect class="cls-1" x="44.44" y="8.57" width="1.97"/><rect class="cls-1" x="51.4" y="10.57" width="0.04" height="1.99"/><polygon class="cls-1" points="48.44 8.57 48.44 7.57 46.44 7.57 46.44 7.57 48.41 7.57 48.41 8.57 50.4 8.57 50.4 10.56 50.44 10.56 50.44 8.57 48.44 8.57"/><rect class="cls-1" x="6" y="31.52" width="0.96" height="0.04"/><rect class="cls-1" x="11.45" y="19.56" width="0.03" height="1.98"/><rect class="cls-1" x="67.87" y="15.55" width="1.91" height="0.02"/><rect class="cls-1" x="26.95" y="3.58" width="0.01" height="0.99"/><rect class="cls-1" x="14.45" y="13.56" width="0.03" height="1.99"/><rect class="cls-1" x="12.45" y="17.56" width="0.03" height="1.98"/><rect class="cls-1" x="15.45" y="11.56" width="0.03" height="1.99"/><rect class="cls-1" x="13.45" y="15.56" width="0.03" height="1.98"/><rect class="cls-1" x="10.98" y="9.56" width="0.96"/><rect class="cls-1" x="38.93" y="7.57" width="0.02" height="1"/><polygon class="cls-1" points="36.94 9.56 36.94 8.57 36.93 8.57 36.93 9.56 34.94 9.56 34.94 9.56 36.94 9.56"/><rect class="cls-1" x="53.4" y="14.56" width="0.04" height="1.99"/><polygon class="cls-1" points="9.45 25.56 9.45 27.56 9.45 28.53 9.49 28.53 9.49 27.53 9.49 25.53 8.99 25.53 8.95 25.53 8.95 25.56 8.95 25.56 9.45 25.56"/><rect class="cls-1" x="28.95" y="4.57" height="1.99"/><rect class="cls-1" x="60.94" y="12.56" width="0.94" height="0.01"/><rect class="cls-1" x="59.94" y="10.56" width="0.94"/><rect class="cls-1" x="42.92" y="5.57" width="0.02" height="0.99"/><rect class="cls-1" x="40.92" y="6.57" width="0.02" height="1"/><polygon class="cls-2" points="118.6 44.49 118.6 42.5 118.6 41.5 118.6 40.5 117.77 40.5 117.77 41.5 115.77 41.5 115.77 42.5 113.78 42.5 113.78 43.5 112.78 43.5 112.78 45.49 112.78 47.49 112.78 49.48 111.78 49.48 111.78 50.48 113.78 50.48 113.78 49.48 115.77 49.48 117.77 49.48 117.77 48.49 118.6 48.49 118.6 46.49 118.6 44.49"/><polygon class="cls-2" points="123.76 38.51 121.76 38.51 121.76 39.5 120.68 39.5 120.68 40.5 120.68 41.5 121.72 41.5 122.76 41.5 122.76 43.5 122.76 45.49 124.75 45.49 124.75 44.49 126.75 44.49 126.75 43.5 126.75 41.5 126.75 39.5 125.75 39.5 125.75 37.51 123.76 37.51 123.76 38.51"/><polygon class="cls-2" points="120.68 46.16 120.68 46.49 120.68 47.49 121.76 47.49 122.76 47.49 122.76 45.49 120.68 45.49 120.68 46.16"/><polygon class="cls-3" points="91.82 18.55 89.83 18.55 89.83 17.55 87.83 17.55 87.83 16.55 85.83 16.55 85.83 15.55 83.84 15.55 83.84 17.55 83.84 19.54 84.83 19.54 84.83 21.54 85.83 21.54 85.83 23.54 87.83 23.54 89.83 23.54 91.82 23.54 91.82 21.54 92.82 21.54 92.82 19.54 91.82 19.54 91.82 18.55"/><polygon class="cls-3" points="75.85 15.55 73.89 15.55 73.86 15.55 71.86 15.55 71.83 15.55 69.86 15.55 69.78 15.55 69.78 15.57 67.87 15.57 67.87 16.53 67.87 16.55 67.87 17.49 67.87 17.55 67.87 19.54 68.83 19.54 68.83 21.54 68.87 21.54 69.84 21.54 69.86 21.54 69.86 23.54 71.86 23.54 73.86 23.54 75.85 23.54 75.85 21.54 76.85 21.54 76.85 19.54 77.85 19.54 77.85 17.55 77.85 15.55 75.94 15.55 75.85 15.55"/><rect x="96.81" y="75.43" width="2" height="2"/><rect x="98.81" y="73.44" width="2" height="2"/><polygon points="127.75 39.5 127.75 37.51 125.75 37.51 125.75 39.5 126.75 39.5 126.75 41.5 126.75 43.5 126.75 44.49 124.75 44.49 124.75 45.49 122.76 45.49 122.76 47.49 121.76 47.49 120.68 47.49 120.68 48.49 119.77 48.49 118.6 48.49 117.77 48.49 117.77 49.48 115.77 49.48 113.78 49.48 113.78 50.48 111.78 50.48 111.78 51.48 109.78 51.48 109.78 51.81 107.79 51.81 107.79 53.48 107.79 55.47 107.79 57.47 107.79 59.46 106.79 59.46 106.79 61.46 105.79 61.46 105.79 63.45 104.8 63.45 104.8 65.45 103.8 65.45 103.8 67.45 102.8 67.45 102.8 69.44 101.8 69.44 101.8 71.44 100.8 71.44 100.8 73.44 102.8 73.44 102.8 71.44 103.8 71.44 103.8 69.44 104.8 69.44 104.8 67.45 105.79 67.45 105.79 65.45 106.79 65.45 106.79 63.45 107.79 63.45 107.79 61.46 108.79 61.46 108.79 59.46 109.78 59.46 109.78 57.47 109.78 55.47 109.78 53.48 111.78 53.48 111.78 52.48 113.78 52.48 113.78 51.48 115.77 51.48 117.77 51.48 117.77 50.48 119.77 50.48 119.77 49.48 121.76 49.48 123.76 49.48 123.76 47.49 124.75 47.49 124.75 46.49 126.75 46.49 126.75 45.49 128.75 45.49 128.75 43.5 128.75 41.5 128.75 39.5 127.75 39.5"/><polygon points="99.81 23.54 99.81 24.53 100.8 24.53 100.8 26.53 101.8 26.53 101.8 28.53 102.8 28.53 102.8 30.52 103.8 30.52 103.8 32.52 104.8 32.52 104.8 34.51 105.79 34.51 105.79 36.51 106.79 36.51 106.79 38.51 107.79 38.51 107.79 40.5 107.79 41.83 109.78 41.83 109.78 42.5 109.78 43.5 110.2 43.5 110.78 43.5 111.2 43.5 111.78 43.5 112.78 43.5 113.78 43.5 113.78 42.5 115.77 42.5 115.77 41.5 117.77 41.5 117.77 40.5 118.6 40.5 118.6 39.84 118.6 39.5 119.64 39.5 119.77 39.5 120.68 39.5 121.76 39.5 121.76 38.51 123.76 38.51 123.76 37.51 125.75 37.51 125.75 35.51 123.76 35.51 123.76 36.51 121.76 36.51 121.76 37.51 119.77 37.51 119.77 38.51 117.77 38.51 117.77 39.5 115.77 39.5 115.77 40.5 113.78 40.5 113.78 41.5 111.78 41.5 109.78 41.5 109.78 40.5 109.78 38.51 108.79 38.51 108.79 36.51 107.79 36.51 107.79 34.51 106.79 34.51 106.79 32.52 105.79 32.52 105.79 30.52 104.8 30.52 104.8 28.53 103.8 28.53 103.8 26.53 102.8 26.53 102.8 24.53 101.8 24.53 101.8 22.54 99.81 22.54 99.81 21.54 97.81 21.54 97.81 23.54 99.81 23.54"/><polygon class="cls-3" points="112.78 49.48 112.78 47.49 112.78 45.49 112.78 43.5 111.78 43.5 111.2 43.5 110.78 43.5 110.2 43.5 109.78 43.5 109.78 42.5 109.78 41.83 107.79 41.83 107.79 42.5 107.79 43.83 108.79 43.83 108.79 45.82 108.79 47.82 108.79 49.82 107.79 49.82 107.79 51.48 107.79 51.81 109.78 51.81 109.78 51.48 111.78 51.48 111.78 50.48 111.78 49.48 112.78 49.48"/><polygon class="cls-3" points="122.76 41.5 121.72 41.5 120.68 41.5 120.68 40.5 120.68 39.5 119.77 39.5 119.64 39.5 118.6 39.5 118.6 39.84 118.6 40.5 118.6 41.5 118.6 42.5 118.6 44.49 118.6 46.49 118.6 48.49 119.77 48.49 120.68 48.49 120.68 47.49 120.68 46.49 120.68 46.16 120.68 45.49 122.76 45.49 122.76 43.5 122.76 41.5"/><polygon points="32.44 29.75 32.44 29.52 32.44 27.75 30.45 27.75 30.45 29.52 30.45 29.75 30.45 31.52 32.44 31.52 32.44 29.75"/><polygon points="34.44 33.52 34.44 34.51 33.44 34.51 33.44 35.51 31.44 35.51 31.44 35.51 29.45 35.51 29.45 37.51 31.44 37.51 31.44 37.51 33.44 37.51 33.44 36.51 35.44 36.51 35.44 34.51 36.43 34.51 36.43 32.52 36.43 30.52 34.44 30.52 34.44 31.52 32.44 31.52 32.44 33.52 34.44 33.52"/><rect x="1.5" y="26.53" width="2" height="2"/><polygon class="cls-3" points="31.44 16.55 31.44 18.55 33.44 18.55 33.44 16.55 34.44 16.55 34.44 14.55 32.44 14.55 30.45 14.55 30.45 16.55 31.44 16.55"/><polygon class="cls-3" points="37.93 16.55 37.93 18.55 39.93 18.55 39.93 16.55 40.92 16.55 40.92 14.55 40.42 14.55 38.93 14.55 38.43 14.55 36.93 14.55 36.93 16.55 37.93 16.55"/><polygon class="cls-2" points="50.44 32.56 50.44 30.56 52.44 30.56 54.44 30.56 54.44 29.56 56.44 29.56 56.44 28.56 58.44 28.56 58.44 26.56 58.39 26.56 58.39 28.53 56.39 28.53 56.39 29.52 54.4 29.52 54.4 30.52 52.4 30.52 50.4 30.52 50.4 30.52 50.4 32.52 49.41 32.52 49.41 34.56 49.44 34.56 49.44 32.56 50.44 32.56"/><rect class="cls-2" x="37.93" y="45.56" width="0.01" height="0.93"/><rect class="cls-2" x="39.93" y="46.56" width="0.02" height="0.93"/><polygon class="cls-2" points="42.42 38.56 42.42 38.51 40.42 38.51 40.42 38.56 40.44 38.56 42.42 38.56"/><polygon class="cls-2" points="14.48 38.56 15.97 38.56 15.97 38.51 17.3 38.51 17.3 38.51 16.47 38.51 14.5 38.51 14.48 38.53 14.48 38.56"/><polygon class="cls-2" points="57.94 19.56 59.94 19.56 61.94 19.56 61.94 19.54 59.94 19.54 57.95 19.54 55.95 19.54 55.45 19.54 55.45 19.56 55.94 19.56 57.94 19.56"/><path class="cls-2" d="M17.47,11.56v2h-1v2h-1v2h-1v2h-1v2h-1v2h-1v10h2v2h1v1h8v1h2v1h2v2h6v-2h2v1h2v-1h2v-1h2v-1h4v-1h2v-1h1v-2h1v-2h0v-2h2.05v-4h6v-1h2v-1h2v-2h-.05v2h-2v1h-2v1h-5v-2h1.06v-2h1v-2H52.4v-2h-1v-2h-1v-2h-1v-2h-1v-1h-2v1h-1v2h-1v2H40.92v2h-1v2h-2v-2h-1v-2h-2.5v2h-1v2h-2v-2h-1v-2h-2v2h-1v2h-2v-2h-1v-2h-1v-2h-1v-2h-1v-1h-2v2ZM42.42,27a2.27,2.27,0,1,1-2.27,2.27A2.27,2.27,0,0,1,42.42,27Zm-16,5.54h0v-2h2v1h2V27.75h2v3.77h2v-1h2v4h-1v2h-2v1h-4v-2h4v-1h1v-1h-2v-2h-2v2h-2v-1h0v2h1v2h-2v-2h-1Zm-5.21-3.27A2.27,2.27,0,1,1,19,27,2.27,2.27,0,0,1,21.24,29.25Z"/><rect class="cls-2" x="54.45" y="20.54" width="0.98" height="0.02"/><rect class="cls-2" x="61.94" y="18.55" width="0.94" height="0.02"/><polygon class="cls-2" points="101.8 71.44 101.8 69.44 102.8 69.44 102.8 67.45 103.8 67.45 103.8 65.45 104.8 65.45 104.8 63.45 105.79 63.45 105.79 61.46 106.79 61.46 106.79 59.46 107.79 59.46 107.79 57.47 107.79 55.47 107.79 53.48 107.79 51.81 107.79 51.48 107.79 49.82 108.79 49.82 108.79 47.82 108.79 45.82 108.79 43.83 107.79 43.83 107.79 42.5 107.79 41.83 107.79 40.5 107.79 38.51 106.79 38.51 106.79 36.51 105.79 36.51 105.79 34.51 104.8 34.51 104.8 32.52 103.8 32.52 103.8 30.52 102.8 30.52 102.8 28.53 101.8 28.53 101.8 26.53 100.8 26.53 100.8 24.53 99.81 24.53 99.81 23.54 97.81 23.54 97.81 21.54 95.81 21.54 95.81 20.54 93.82 20.54 93.82 19.54 92.82 19.54 92.82 21.54 91.82 21.54 91.82 23.54 89.83 23.54 87.83 23.54 85.83 23.54 85.83 21.54 84.83 21.54 84.83 19.54 83.84 19.54 83.84 17.55 83.84 15.55 81.84 15.55 79.85 15.55 77.85 15.55 77.85 17.55 77.85 19.54 76.85 19.54 76.85 21.54 75.85 21.54 75.85 23.54 73.86 23.54 71.86 23.54 69.86 23.54 69.86 21.54 69.84 21.54 68.87 21.54 68.83 21.54 68.83 19.54 67.87 19.54 67.87 17.55 67.87 17.49 67.87 16.55 65.87 16.55 65.87 17.55 63.88 17.55 63.88 18.55 63.88 18.55 63.88 18.55 64.87 18.55 64.87 20.54 64.87 22.54 63.88 22.54 63.88 24.53 62.88 24.53 62.88 26.53 61.88 26.53 61.88 28.53 60.88 28.53 60.88 30.52 59.88 30.52 59.88 32.52 57.89 32.52 57.89 33.52 57.89 35.51 57.89 37.51 57.89 39.5 56.89 39.5 56.89 41.5 55.89 41.5 55.89 43.49 54.9 43.49 54.9 45.49 53.9 45.49 53.9 47.49 51.9 47.49 51.9 48.48 49.91 48.48 49.91 49.48 47.91 49.48 45.91 49.48 43.92 49.48 41.92 49.48 39.92 49.48 39.92 48.48 37.93 48.48 37.93 47.49 35.93 47.49 33.94 47.49 31.94 47.49 29.95 47.49 27.95 47.49 25.95 47.49 23.96 47.49 21.96 47.49 21.96 46.49 19.97 46.49 19.97 45.49 17.97 45.49 15.97 45.49 13.98 45.49 11.98 45.49 9.99 45.49 7.99 45.49 7.99 45.49 7.99 45.49 7.66 45.49 7.66 46.82 7.66 48.82 7.66 50.81 7.66 52.81 7.66 54.81 7.66 56.8 7.66 58.8 8.32 58.8 8.32 60.79 8.99 60.79 8.99 62.79 9.65 62.79 9.65 64.79 10.32 64.79 10.32 66.78 10.98 66.78 10.98 68.78 11.65 68.78 11.65 70.11 13.65 70.11 13.65 72.11 14.98 72.11 14.98 73.44 16.97 73.44 16.97 74.77 18.97 74.77 18.97 76.1 20.96 76.1 20.96 77.43 22.96 77.43 22.96 79.42 23.96 79.42 24.96 79.42 24.96 77.43 26.95 77.43 28.95 77.43 30.94 77.43 32.94 77.43 34.94 77.43 36.93 77.43 38.93 77.43 40.92 77.43 42.92 77.43 42.92 79.42 43.92 79.42 44.92 79.42 44.92 77.43 46.91 77.43 48.91 77.43 50.9 77.43 52.9 77.43 54.9 77.43 56.89 77.43 58.89 77.43 60.88 77.43 62.88 77.43 64.88 77.43 66.87 77.43 68.87 77.43 70.86 77.43 72.86 77.43 74.86 77.43 74.86 79.42 75.85 79.42 76.85 79.42 76.85 77.43 78.85 77.43 80.84 77.43 82.84 77.43 84.83 77.43 86.83 77.43 88.83 77.43 90.82 77.43 92.82 77.43 92.82 79.42 93.82 79.42 94.81 79.42 94.81 77.43 96.81 77.43 96.81 75.43 98.81 75.43 98.81 73.44 100.8 73.44 100.8 71.44 101.8 71.44"/><path d="M94.82,79.42h-2v-2h-16v2h-2v-2H44.92v2h-2v-2H25v2H23v-2H21V76.1H19V74.77H17V73.44H15V72.1H13.65v-2h-2V68.78H11v-2h-.67v-2H9.65v-2H9v-2H8.32v-2H7.66V45.49H20v1h2v1h16v1h2v1h10v-1h2v-1h2v-2h1v-2h1v-2h1v-2h1v-7h2v-2h1v-2h1v-2h1v-2h1v-2h1v-4h-1v-1h2v-1h2v-1h18v1h2v1h2v1h2v1h2v1h2v1h2v-2h-2v-1h-2v-1h-2v-1h-2v-1h-2v-1h-2v-1h-18v1h-2v1h-2v1h0v-4h-1v-2h-1v-2h-1v-2h-2v-1h-2v-1h-2v-1h-12v1h-2v1h-2v1h-2v1h-2v-1h-2v-1h-2v-1h-2v2h2v1h2v1h2v1h2v-1h2v-1h2v-1h2v-1h12v1h2v1h2v1h1v2h1v2h1v5H54.44v-1h-1v-2h-1v-2h-1v-2h-1v-2h-2v-1h-2v1h-2v2h-1v2h-19v-2h-1v-2h-2v-1h-2v2h2v1h1v2h1v2h21v-2h1v-2h1v-1h2v1h1v2h1v2h1v2h1v2h1.06v2h-1v2H51.4v2h5v-1h2v-1h2v-2H58.44v1h-2v1h-2v0h0v-2h1v-1h6.48v-1h.94v4h-1v2h-1v2h-1v2h-1v2h-1v1h-2v8h-1v2h-1v2h-1v2h-1v1h-2v1h-10v-1h-2v-1h-1.5v-1h2v-1h2v-2h0v-2h0v-1h2v2h2v-3h2v-1h4v2h0v2h2v-2h0v-2h-2v-2h-1v-2h1v-2h4v-1h2v-1h2v-2h-2v1h-2v1h-2v-4h-2v4H48.41v2h0v2h-1v2h-1v1h-2v1h-4v1h-2v1h-2v1h-2v-1h-2v2h2v1h2v-1h2v1h0v1h-2v1h-2v2H22v-1h0v-2H20v1H8.62v-.6H7V41.5H6v-10H7v-2h.5v1h2v3h0v0h-2v4h1v1.93h2v-2h-1V35.56h3v1.95h2v1h8v1h2v1h2v-2h-2v-1h-2v-1h-8v-1h-1v-2h-2v-10h1v-2h1v-2h1v-2h1v-2h1v-2h1v-2h-2v2h-1v2h-1v2h0v0h-1v2h0v0h-1v2h0v0H11v-12h1v-2h1v-1h2v-1h2v-1h2v-1h8v1h2v-2H27v-1H19v1H17v1H15v1H13v1H11v2H10v2H9v14H5.5v-1h-2v-1h-2v2h2v1h2v1H7v2H4v2H5v2H4v10H5v2h.66V58.8h.67v2H7v2h.67v2h.67v2H9v2h.67v2h2V72.1H13v2h2v1.33h2v1.33h2v1.33h2v1.33h1v2h4v-2h16v2h4v-2H73.86v2h4v-2h14v2h4v-2h1v-2h-2ZM7.49,27.53H8.95v-2h.54v3h0v0h-2Z"/><polygon points="19.45 9.56 17.47 9.56 17.47 11.56 19.47 11.56 19.47 9.56 19.45 9.56 19.45 9.56"/><polygon class="cls-3" points="25.45 16.55 25.45 18.55 27.45 18.55 27.45 16.55 28.45 16.55 28.45 14.55 26.45 14.55 25.45 14.55 24.46 14.55 24.46 16.55 25.45 16.55"/><circle cx="18.97" cy="29.25" r="2.27"/><circle cx="42.42" cy="29.25" r="2.27"/><polygon class="cls-4" points="9.45 28.53 9.45 27.56 9.45 25.56 8.95 25.56 8.95 25.56 8.95 27.53 7.49 27.53 7.49 28.56 9.45 28.56 9.45 28.53"/><polygon class="cls-4" points="28.95 4.58 26.95 4.58 26.95 4.57 26.95 4.57 26.95 3.58 24.96 3.58 22.96 3.58 20.96 3.58 18.97 3.58 18.97 4.58 16.97 4.58 16.97 5.57 14.98 5.57 14.98 6.57 12.98 6.57 12.98 7.57 11.98 7.57 11.98 9.56 11.95 9.56 11.95 9.56 10.98 9.56 10.98 11.56 10.98 13.56 10.98 15.55 10.98 17.55 10.98 19.54 10.98 21.54 10.98 21.56 11.45 21.56 11.45 21.54 11.45 19.56 11.48 19.56 12.45 19.56 12.45 19.54 12.45 17.56 12.48 17.56 13.45 17.56 13.45 17.55 13.45 15.56 13.48 15.56 14.45 15.56 14.45 15.55 14.45 13.56 14.48 13.56 15.45 13.56 15.45 13.56 15.45 11.56 15.47 11.56 17.45 11.56 17.45 11.56 17.45 9.56 17.47 9.56 19.45 9.56 19.45 9.56 19.45 7.57 21.45 7.57 21.45 7.57 21.45 8.57 21.46 8.57 23.45 8.57 23.45 8.57 23.45 10.56 24.45 10.56 24.45 12.56 25.45 12.56 26.45 12.56 28.45 12.56 30.45 12.56 32.44 12.56 34.44 12.56 36.44 12.56 38.44 12.56 40.44 12.56 42.44 12.56 43.44 12.56 43.44 10.56 44.44 10.56 44.44 8.57 44.44 8.57 46.41 8.57 46.44 8.57 46.44 7.57 46.44 7.57 48.44 7.57 48.44 8.57 50.44 8.57 50.44 10.56 50.44 10.56 51.4 10.56 51.44 10.56 51.44 12.56 51.44 12.56 52.4 12.56 52.44 12.56 52.44 14.55 52.44 14.56 53.4 14.56 53.44 14.56 53.44 16.55 53.44 16.56 54.44 16.56 54.44 17.55 55.95 17.55 57.95 17.55 59.94 17.55 61.88 17.55 61.88 16.55 61.88 14.55 61.88 12.56 60.94 12.56 60.94 12.56 60.88 12.56 60.88 10.56 59.94 10.56 59.94 10.56 59.88 10.56 59.88 8.57 58.89 8.57 58.89 7.57 56.89 7.57 56.89 6.57 54.9 6.57 54.9 5.57 52.9 5.57 50.9 5.57 48.91 5.57 46.91 5.57 44.91 5.57 42.94 5.57 42.94 6.57 42.92 6.57 42.92 6.57 40.94 6.57 40.94 7.57 40.92 7.57 40.92 7.57 38.94 7.57 38.94 8.57 38.93 8.57 38.93 8.57 36.94 8.57 36.94 9.56 34.94 9.56 34.94 9.56 34.94 9.56 34.94 8.57 32.94 8.57 32.94 7.57 30.94 7.57 30.94 6.57 28.95 6.57 28.95 6.57 28.95 6.57 28.95 4.58"/><polygon class="cls-4" points="17.97 42.5 17.97 40.5 15.97 40.5 15.97 38.56 14.48 38.56 14.48 40.5 12.48 40.5 12.48 41.5 10.49 41.5 10.49 39.5 10.49 39.5 10.47 39.47 10.47 39.48 8.47 39.48 8.47 37.55 7.47 37.55 7.47 35.56 7.47 33.56 9.45 33.56 9.45 33.52 9.45 33.52 9.45 31.56 9.45 30.56 7.45 30.56 6.99 30.56 6.99 31.52 6.95 31.52 6.95 31.56 6 31.56 6 33.52 6 35.51 6 37.51 6 39.5 6 41.5 6.99 41.5 6.99 42.89 7.45 42.89 8.62 42.89 8.62 43.49 9.99 43.49 11.98 43.49 13.98 43.49 15.97 43.49 17.97 43.49 19.97 43.49 19.97 42.51 19.96 42.5 17.97 42.5"/><rect class="cls-4" x="28.45" y="40.5" width="2"/><polygon class="cls-4" points="60.44 22.56 58.44 22.56 58.44 23.56 56.44 23.56 56.44 24.56 54.44 24.56 53.44 24.56 52.44 24.56 52.44 24.57 52.46 24.57 52.46 26.56 52.46 28.56 52.44 28.56 52.44 28.56 54.44 28.56 54.44 27.56 56.44 27.56 56.44 26.56 58.39 26.56 58.44 26.56 58.44 28.56 56.44 28.56 56.44 29.56 54.44 29.56 54.44 30.56 52.44 30.56 50.44 30.56 50.44 32.56 49.44 32.56 49.44 34.56 50.4 34.56 50.4 36.51 52.39 36.51 52.39 38.51 52.39 38.51 52.39 40.5 50.4 40.5 50.4 40.5 50.4 42.5 48.41 42.5 48.41 43.49 46.41 43.49 46.41 42.5 44.42 42.5 44.42 40.5 42.42 40.5 42.42 38.56 40.44 38.56 40.42 38.56 40.42 39.5 38.43 39.5 38.43 39.5 40.42 39.5 40.42 41.5 40.42 41.5 40.42 43.49 38.43 43.49 38.43 44.49 36.43 44.49 36.43 45.49 37.93 45.49 37.93 45.56 37.94 45.56 37.94 46.49 39.92 46.49 39.92 46.56 39.94 46.56 39.94 47.49 41.92 47.49 43.92 47.49 45.91 47.49 47.91 47.49 49.91 47.49 49.91 46.49 51.9 46.49 51.9 45.49 52.9 45.49 52.9 43.49 53.9 43.49 53.9 41.5 54.9 41.5 54.9 39.5 55.89 39.5 55.89 37.51 55.89 35.51 55.89 33.52 55.89 31.52 57.89 31.52 57.89 30.52 58.89 30.52 58.89 28.53 59.88 28.53 59.88 26.53 60.88 26.53 60.88 24.53 61.88 24.53 61.88 22.54 62.88 22.54 62.88 20.54 62.88 18.56 61.94 18.56 61.94 19.54 61.94 19.56 59.94 19.56 57.94 19.56 55.94 19.56 55.45 19.56 55.45 20.54 55.44 20.54 55.44 20.56 54.45 20.56 54.45 22.54 54.44 22.54 54.44 22.56 56.44 22.56 56.44 21.56 58.44 21.56 58.44 20.56 60.38 20.56 60.44 20.56 60.44 22.56"/><polygon class="cls-4" points="44.42 40.5 44.42 40.5 44.42 40.5 44.42 40.5"/><polygon class="cls-4" points="18 40.5 17.97 40.48 17.97 40.5 18 40.5"/><rect class="cls-4" x="6.95" y="25.56" height="1.97"/><polygon class="cls-5" points="30.45 42.5 30.45 42.5 28.45 42.5 28.45 42.5 26.45 42.5 26.45 40.5 26.45 40.5 24.46 40.5 24.46 39.5 22.46 39.5 22.46 38.51 20.46 38.51 18.47 38.51 17.3 38.51 17.3 38.51 17.97 38.51 17.97 40.48 18 40.5 19.97 40.5 19.97 42.5 19.96 42.5 19.97 42.51 19.97 42.5 21.96 42.5 21.96 44.49 21.96 44.49 21.96 45.49 23.96 45.49 25.95 45.49 27.95 45.49 29.95 45.49 31.94 45.49 33.94 45.49 34.44 45.49 34.44 43.5 36.43 43.5 36.43 42.5 38.43 42.5 38.43 41.5 38.43 41.5 38.43 40.5 36.43 40.5 36.43 41.5 34.44 41.5 34.44 40.5 32.44 40.5 32.44 42.5 30.45 42.5"/><polygon points="15.97 38.56 15.97 40.5 17.97 40.5 17.97 40.48 17.97 38.51 17.3 38.51 15.97 38.51 15.97 38.56"/><polygon points="17.97 42.5 19.96 42.5 19.97 42.5 19.97 40.5 18 40.5 17.97 40.5 17.97 42.5"/><polygon points="27.45 36.51 29.45 36.51 29.45 34.51 28.45 34.51 28.45 32.52 28.45 32.52 28.45 33.52 30.45 33.52 30.45 31.52 28.45 31.52 28.45 30.52 26.45 30.52 26.45 32.52 26.45 32.52 26.45 34.51 27.45 34.51 27.45 36.51"/><polygon points="30.45 40.5 28.45 40.5 28.45 40.5 28.24 40.5 26.45 40.5 26.45 42.5 28.45 42.5 28.45 42.5 30.45 42.5 30.45 42.5 32.44 42.5 32.44 40.5 30.45 40.5 30.45 40.5"/><polygon class="cls-5" points="12.48 39.5 12.48 38.51 14.48 38.51 14.48 38.53 14.5 38.51 14.48 38.51 14.48 37.51 12.48 37.51 12.48 35.56 9.47 35.56 9.47 37.49 10.47 37.49 10.47 39.47 10.49 39.5 12.48 39.5"/><polygon points="14.48 38.51 12.48 38.51 12.48 39.5 10.49 39.5 10.49 39.5 10.49 41.5 12.48 41.5 12.48 40.5 14.48 40.5 14.48 38.56 14.48 38.53 14.48 38.51"/><polygon class="cls-5" points="46.41 40.5 46.41 41.5 48.4 41.5 48.4 40.5 50.4 40.5 50.4 40.5 50.4 40.5 50.4 40.5 50.4 38.51 50.4 38.51 50.4 36.55 48.41 36.55 46.41 36.55 46.41 37.51 44.42 37.51 44.42 38.51 44.42 40.5 44.42 40.5 46.41 40.5"/><polygon points="46.41 42.5 46.41 43.49 48.41 43.49 48.41 42.5 50.4 42.5 50.4 40.5 50.4 40.5 48.4 40.5 48.4 41.5 46.41 41.5 46.41 40.5 44.42 40.5 44.42 40.5 44.42 42.5 46.41 42.5"/></svg>