<svg id="Calque_1" data-name="Calque 1" xmlns="http://www.w3.org/2000/svg" viewBox="0 0 41 33.63"><defs><style>.cls-1{fill:#e6e6e6;}</style></defs><title>chat</title><path class="cls-1" d="M15.73,2H10.55v.67H9.25v.67H8V4H6.66v.67H6V6.06H5.37v9.4H4.72V16.8H4.07v1.34h-1v1.34H2.78v1.34H2.13v6.71h.65v1.34H11.2v.67h1.3v.67H22.85v.67h1.3v.67h6.48V30.9h1.29v-.67h.65V28.89h.65V27.54h.65V26.2h.65V20.83H35.8v-.67h.65V18.82h.65V17.47h.65V16.13h.65V14.79H39V12.1h-.65v-4h-.65V6.73H37.1V5.39h-.65V4.72H35.16V4h-1.3V3.38H26.09V4H24.8v.67H23.5v.67H22.21v.67H20.91V5.39h-1.3V4.72H18.32V4H17V2.71h-1.3ZM30.95,17.47V16.13h.65V14.79h.65V13.45h.65V12.1h1.29v1.34h-.65v1.34h-.65v1.34h-.65v2.69h-1.3ZM16.7,24.19H27.06v-.67h1.3v-.67H29V21.5h.65V20.16h1.29V21.5H30.3v1.34h-.65v1.34H28.36v.67h-1.3v.67H7.63v-.67H6.34V23.52H5.69V22.17H7v1.34h.65v.67H16.7Z"/><polygon points="39.69 12.11 39.69 10.76 39.69 9.42 39.69 8.08 39.04 8.08 39.04 6.73 38.4 6.73 38.4 5.39 37.75 5.39 37.75 4.05 36.45 4.05 36.45 3.38 35.16 3.38 35.16 2.71 33.86 2.71 33.86 2.04 32.57 2.04 31.27 2.04 29.98 2.04 28.68 2.04 27.39 2.04 26.09 2.04 26.09 2.71 24.8 2.71 24.8 3.38 23.5 3.38 23.5 4.05 22.2 4.05 22.2 4.72 20.91 4.72 20.91 4.05 19.61 4.05 19.61 3.38 18.32 3.38 18.32 2.71 17.02 2.71 17.02 4.05 18.32 4.05 18.32 4.72 19.61 4.72 19.61 5.39 20.91 5.39 20.91 6.06 22.2 6.06 22.2 5.39 23.5 5.39 23.5 4.72 24.8 4.72 24.8 4.05 26.09 4.05 26.09 3.38 27.39 3.38 28.68 3.38 29.98 3.38 31.27 3.38 32.57 3.38 33.86 3.38 33.86 4.05 35.16 4.05 35.16 4.72 36.45 4.72 36.45 5.39 37.1 5.39 37.1 6.73 37.75 6.73 37.75 8.08 38.4 8.08 38.4 9.42 38.4 10.76 38.4 11.43 38.4 12.11 39.04 12.11 39.04 13.45 39.04 14.79 38.4 14.79 38.4 16.13 37.75 16.13 37.75 17.48 37.1 17.48 37.1 18.82 36.45 18.82 36.45 20.16 35.8 20.16 35.8 20.83 34.51 20.83 34.51 22.17 34.51 23.52 34.51 24.86 34.51 26.2 33.86 26.2 33.86 27.54 33.21 27.54 33.21 28.89 32.57 28.89 32.57 30.23 31.92 30.23 31.92 30.9 30.62 30.9 30.62 31.57 29.33 31.57 28.03 31.57 26.74 31.57 25.44 31.57 24.15 31.57 24.15 30.9 22.85 30.9 22.85 30.23 21.56 30.23 20.26 30.23 18.97 30.23 17.67 30.23 16.38 30.23 15.08 30.23 13.79 30.23 12.49 30.23 12.49 29.56 11.2 29.56 11.2 28.89 9.9 28.89 8.61 28.89 7.31 28.89 6.02 28.89 4.72 28.89 3.86 28.89 3.43 28.89 2.78 28.89 2.78 28.44 2.78 27.54 2.13 27.54 2.13 26.2 2.13 24.86 2.13 23.52 2.13 22.17 2.13 20.83 2.78 20.83 2.78 20.16 2.78 19.49 3.1 19.49 3.1 18.82 3.1 18.15 4.07 18.15 4.07 16.8 4.4 16.8 4.72 16.8 4.72 15.46 5.37 15.46 5.37 14.12 5.37 12.78 5.37 11.43 5.37 10.09 5.37 8.75 5.37 7.41 5.37 6.06 6.02 6.06 6.02 4.72 6.66 4.72 6.66 4.05 7.96 4.05 7.96 3.38 9.25 3.38 9.25 2.71 10.55 2.71 10.55 2.04 11.84 2.04 13.14 2.04 14.43 2.04 15.73 2.04 15.73 2.71 17.02 2.71 17.02 1.36 15.73 1.36 15.73 0.69 14.43 0.69 13.14 0.69 11.84 0.69 10.55 0.69 10.55 1.36 9.25 1.36 9.25 2.04 7.96 2.04 7.96 2.71 6.66 2.71 6.66 3.38 5.37 3.38 5.37 4.72 4.72 4.72 4.72 6.06 4.07 6.06 4.07 7.41 4.07 8.75 4.07 10.09 4.07 11.43 4.07 12.78 4.07 14.12 4.07 15.46 3.43 15.46 3.43 16.8 3.1 16.8 2.78 16.8 2.78 18.15 1.81 18.15 1.81 19.49 1.48 19.49 1.48 20.83 0.83 20.83 0.83 22.17 0.83 23.52 0.83 24.86 0.83 26.2 0.83 27.54 1.48 27.54 1.48 28.89 2.13 28.89 2.13 30.23 3.43 30.23 4.72 30.23 6.02 30.23 7.31 30.23 8.61 30.23 9.9 30.23 11.2 30.23 11.2 30.9 12.49 30.9 12.49 31.57 13.79 31.57 15.08 31.57 16.38 31.57 17.67 31.57 18.97 31.57 20.26 31.57 21.56 31.57 22.85 31.57 22.85 32.24 24.15 32.24 24.15 32.91 25.44 32.91 26.74 32.91 28.03 32.91 29.33 32.91 30.62 32.91 30.62 32.24 31.92 32.24 31.92 31.57 33.21 31.57 33.21 30.23 33.86 30.23 33.86 28.89 34.51 28.89 34.51 27.54 35.16 27.54 35.16 26.2 35.8 26.2 35.8 24.86 35.8 23.52 35.8 22.17 35.8 21.5 37.1 21.5 37.1 20.16 37.75 20.16 37.75 18.82 38.4 18.82 38.4 17.48 39.04 17.48 39.04 16.13 39.69 16.13 39.69 14.79 40.34 14.79 40.34 13.45 40.34 12.11 39.69 12.11"/><polygon points="14.11 24.19 12.81 24.19 11.52 24.19 10.22 24.19 8.93 24.19 7.63 24.19 7.63 23.52 6.99 23.52 6.99 22.17 5.69 22.17 5.69 23.52 6.34 23.52 6.34 24.86 7.63 24.86 7.63 25.53 8.93 25.53 10.22 25.53 11.52 25.53 12.81 25.53 14.11 25.53 15.41 25.53 16.7 25.53 18 25.53 19.29 25.53 20.59 25.53 21.88 25.53 23.18 25.53 24.47 25.53 25.77 25.53 27.06 25.53 27.06 24.86 28.36 24.86 28.36 24.19 29.65 24.19 29.65 22.84 30.3 22.84 30.3 21.5 30.95 21.5 30.95 20.16 29.65 20.16 29.65 21.5 29 21.5 29 22.84 28.36 22.84 28.36 23.52 27.06 23.52 27.06 24.19 25.77 24.19 24.47 24.19 23.18 24.19 21.88 24.19 20.59 24.19 19.29 24.19 18 24.19 16.7 24.19 15.41 24.19 14.11 24.19"/><polygon points="32.24 17.48 32.24 16.13 32.89 16.13 32.89 14.79 33.54 14.79 33.54 13.45 34.19 13.45 34.19 12.78 34.19 12.11 32.89 12.11 32.89 13.45 32.24 13.45 32.24 14.79 31.59 14.79 31.59 16.13 30.95 16.13 30.95 17.48 30.95 18.82 32.24 18.82 32.24 17.48"/></svg>